<?xml version="1.0" encoding="utf-8"?>
<!-- Generator: Adobe Illustrator 26.5.0, SVG Export Plug-In . SVG Version: 6.00 Build 0)  -->
<svg version="1.1" id="Layer_1" xmlns="http://www.w3.org/2000/svg" xmlns:xlink="http://www.w3.org/1999/xlink" x="0px" y="0px"
	 viewBox="0 0 261 109" style="enable-background:new 0 0 261 109;" xml:space="preserve">
<style type="text/css">
	.st0{fill:none;stroke:#000000;stroke-width:1.000000e-03;stroke-linecap:round;stroke-linejoin:round;}
</style>
<g>
	<polygon class="st0" points="140.31,5.26 139.9,5.32 139.49,5.39 139.08,5.45 138.67,5.52 138.26,5.6 137.85,5.68 137.44,5.76 
		137.03,5.85 136.62,5.94 136.22,6.04 135.81,6.14 135.41,6.24 135.01,6.35 134.61,6.46 134.21,6.57 133.81,6.69 133.41,6.82 
		133.01,6.95 132.62,7.08 132.22,7.21 131.83,7.35 131.44,7.5 131.05,7.64 130.66,7.79 130.27,7.95 129.89,8.11 129.5,8.27 
		129.12,8.44 128.74,8.61 128.36,8.78 127.99,8.96 127.61,9.14 127.24,9.33 126.87,9.52 126.5,9.71 126.13,9.91 125.76,10.11 
		125.4,10.31 125.04,10.52 124.68,10.73 124.32,10.95 123.97,11.16 123.61,11.39 123.26,11.61 122.92,11.84 122.57,12.07 
		122.22,12.31 121.88,12.55 121.54,12.79 121.21,13.04 120.87,13.29 120.54,13.54 120.21,13.8 119.89,14.05 119.56,14.32 
		119.24,14.58 118.92,14.85 118.61,15.12 118.29,15.4 117.99,15.68 117.68,15.96 117.37,16.24 117.07,16.53 116.77,16.82 
		116.48,17.12 116.18,17.41 115.89,17.71 115.61,18.01 115.32,18.32 115.04,18.63 114.76,18.94 114.61,19.11 124.03,48.56 
		106.33,26.86 105.41,26.68 104.49,26.51 103.57,26.35 102.66,26.19 101.72,26.04 100.79,25.9 99.86,25.77 98.93,25.65 97.99,25.54 
		97.06,25.44 96.13,25.35 95.21,25.26 94.28,25.19 93.35,25.12 92.51,25.07 91.67,25.02 90.83,24.99 89.99,24.96 89.15,24.93 
		88.31,24.92 87.47,24.91 86.55,24.91 85.63,24.92 84.71,24.94 83.79,24.97 82.87,25.01 82.03,25.05 81.2,25.1 80.37,25.15 
		79.53,25.22 78.7,25.29 77.87,25.37 77.04,25.46 76.21,25.55 75.38,25.65 74.55,25.76 73.72,25.88 72.89,26 72.07,26.13 
		71.24,26.27 70.43,26.42 69.62,26.57 68.81,26.73 68.01,26.89 67.18,27.07 66.36,27.25 65.54,27.44 64.72,27.64 63.9,27.84 
		63,28.08 62.1,28.32 61.2,28.58 60.3,28.84 59.4,29.11 58.58,29.37 57.76,29.63 56.95,29.9 56.13,30.18 55.32,30.46 54.5,30.76 
		53.69,31.06 52.74,31.42 51.8,31.78 50.85,32.16 49.9,32.56 48.96,32.96 48.01,33.37 47.11,33.77 46.21,34.18 45.32,34.6 
		44.42,35.03 43.52,35.47 42.62,35.92 41.73,36.37 40.83,36.84 39.9,37.34 38.96,37.85 38.03,38.37 37.09,38.9 36.16,39.44 
		35.23,39.99 34.21,40.6 33.19,41.22 32.18,41.86 31.17,42.51 30.15,43.17 29.14,43.84 28.13,44.52 27.12,45.22 26.11,45.93 
		25.11,46.65 24.1,47.38 23.09,48.13 22.09,48.89 21.09,49.66 19.97,50.53 18.85,51.42 17.74,52.32 16.63,53.24 15.52,54.17 
		14.41,55.12 13.3,56.08 12.19,57.05 12.4,57 12.85,56.88 13.31,56.77 13.76,56.66 14.22,56.56 14.68,56.46 15.14,56.36 15.6,56.27 
		16.06,56.18 16.52,56.1 16.98,56.03 17.45,55.95 17.91,55.89 18.37,55.82 18.84,55.77 19.31,55.71 19.77,55.66 20.24,55.62 
		20.71,55.58 21.17,55.55 21.64,55.52 22.11,55.49 22.58,55.47 23.05,55.45 23.52,55.44 23.98,55.44 24.45,55.43 24.92,55.44 
		25.39,55.44 25.86,55.46 26.33,55.47 26.8,55.5 27.26,55.52 27.73,55.55 28.2,55.59 28.67,55.63 29.13,55.67 29.6,55.72 
		30.07,55.78 30.53,55.84 31,55.9 31.46,55.97 31.92,56.04 32.38,56.12 32.85,56.2 33.31,56.29 33.77,56.38 34.23,56.47 
		34.68,56.57 35.14,56.68 35.6,56.79 36.05,56.9 36.51,57.02 36.96,57.15 37.41,57.27 37.86,57.41 38.31,57.54 38.75,57.68 
		39.2,57.83 39.64,57.98 40.09,58.13 40.53,58.29 40.97,58.46 41.41,58.62 41.84,58.8 42.28,58.97 42.71,59.15 43.14,59.34 
		43.57,59.53 44,59.72 44.42,59.92 44.84,60.12 45.26,60.33 45.68,60.54 46.1,60.75 46.51,60.97 46.93,61.2 47.34,61.42 
		47.74,61.65 48.15,61.89 48.55,62.13 48.95,62.37 49.35,62.62 49.75,62.87 50.14,63.13 50.53,63.39 50.92,63.65 51.31,63.92 
		51.69,64.19 52.07,64.46 52.45,64.74 52.82,65.02 53.19,65.31 53.56,65.6 53.93,65.89 54.29,66.19 54.65,66.49 55.01,66.79 
		55.36,67.1 55.71,67.41 56.06,67.73 56.4,68.05 56.74,68.37 57.08,68.69 57.42,69.02 57.75,69.35 58.08,69.69 58.4,70.03 
		58.72,70.37 59.04,70.71 59.35,71.06 59.66,71.41 59.97,71.76 60.28,72.12 60.58,72.48 60.87,72.85 61.16,73.21 61.45,73.58 
		61.74,73.95 62.02,74.33 62.3,74.7 62.57,75.08 62.84,75.47 63.11,75.85 63.37,76.24 63.63,76.63 63.89,77.03 64.14,77.42 
		64.39,77.82 64.63,78.22 64.87,78.63 65.1,79.03 65.33,79.44 65.56,79.85 65.78,80.26 66,80.68 66.22,81.09 66.43,81.51 
		66.63,81.93 66.83,82.36 67.03,82.78 67.22,83.21 67.41,83.64 67.6,84.07 67.78,84.5 67.95,84.94 68.13,85.37 68.29,85.81 
		68.46,86.25 68.62,86.69 68.77,87.14 68.92,87.58 69.06,88.03 69.2,88.47 69.34,88.92 69.47,89.37 69.6,89.82 69.72,90.28 
		69.84,90.73 69.95,91.18 70.06,91.64 70.17,92.1 70.27,92.56 70.36,93.01 70.45,93.47 70.54,93.94 70.62,94.4 70.7,94.86 
		70.77,95.32 70.84,95.79 70.9,96.25 70.96,96.72 71.01,97.18 71.06,97.65 71.11,98.12 71.15,98.58 71.18,99.05 71.21,99.52 
		71.24,99.99 71.26,100.46 71.28,100.92 71.29,101.39 71.29,101.86 71.3,102.33 71.29,102.8 71.29,103.27 71.28,103.74 
		86.39,103.66 92.16,90.73 97.73,103.64 110.14,103.64 110.07,103.56 109.94,103.39 109.82,103.23 109.7,103.06 109.58,102.9 
		109.46,102.73 109.34,102.56 109.22,102.39 109.11,102.22 109,102.04 108.89,101.87 108.78,101.7 108.67,101.52 108.57,101.35 
		108.46,101.17 108.36,100.99 108.26,100.81 108.17,100.63 108.07,100.44 107.97,100.26 107.88,100.08 107.79,99.89 107.7,99.71 
		107.61,99.52 107.53,99.34 107.45,99.15 107.37,98.96 107.29,98.77 107.21,98.58 107.13,98.39 107.06,98.19 106.99,98 
		106.92,97.81 106.85,97.61 106.78,97.42 106.72,97.22 106.66,97.03 106.6,96.83 106.54,96.63 106.48,96.44 106.43,96.24 
		106.38,96.04 106.33,95.84 106.28,95.64 106.23,95.44 106.19,95.24 106.15,95.04 106.11,94.84 106.07,94.63 106.03,94.43 
		106,94.23 105.97,94.02 105.94,93.82 105.91,93.62 105.88,93.41 105.86,93.21 105.84,93 105.82,92.8 105.8,92.6 105.78,92.39 
		105.77,92.18 105.76,91.98 105.75,91.77 105.74,91.57 105.74,91.36 105.73,91.16 105.73,90.95 105.73,90.75 105.73,90.54 
		105.74,90.33 105.75,90.13 105.75,89.92 105.76,89.72 105.78,89.51 105.79,89.31 105.81,89.1 105.83,88.9 105.85,88.69 
		105.87,88.49 105.9,88.29 105.93,88.08 105.96,87.88 105.99,87.67 106.02,87.47 106.06,87.27 106.09,87.07 106.13,86.86 
		106.18,86.66 106.22,86.46 106.26,86.26 106.31,86.06 106.36,85.86 106.41,85.66 106.47,85.46 106.52,85.27 106.58,85.07 
		106.64,84.87 106.7,84.68 106.76,84.48 106.83,84.29 106.9,84.09 106.97,83.9 107.04,83.7 107.11,83.51 107.19,83.32 107.26,83.13 
		107.34,82.94 107.42,82.75 107.5,82.56 107.59,82.37 107.68,82.19 107.76,82 107.85,81.82 107.95,81.63 108.04,81.45 108.14,81.27 
		108.23,81.09 108.33,80.91 108.43,80.73 108.54,80.55 108.64,80.37 108.75,80.2 108.86,80.02 108.96,79.85 109.08,79.68 
		109.19,79.5 109.31,79.33 109.42,79.16 109.54,79 109.66,78.83 109.78,78.66 109.9,78.5 110.03,78.33 110.16,78.17 110.29,78.01 
		110.42,77.85 110.55,77.69 110.68,77.54 110.81,77.38 110.95,77.23 111.09,77.08 111.23,76.92 111.37,76.77 111.51,76.63 
		111.65,76.48 111.8,76.33 111.94,76.19 112.09,76.05 112.24,75.9 112.39,75.76 112.55,75.63 112.7,75.49 112.86,75.35 
		113.01,75.22 113.17,75.09 113.33,74.96 113.49,74.83 113.65,74.7 113.81,74.58 113.98,74.45 114.14,74.33 114.31,74.21 
		114.48,74.09 114.64,73.97 114.82,73.86 114.99,73.74 115.16,73.63 115.33,73.52 115.51,73.41 115.68,73.3 115.86,73.2 
		116.04,73.1 116.21,72.99 116.39,72.89 116.58,72.8 116.76,72.7 116.94,72.6 117.12,72.51 117.31,72.42 117.49,72.33 117.68,72.25 
		117.87,72.16 118.06,72.08 118.24,72 118.43,71.92 118.62,71.84 118.82,71.76 119.01,71.69 119.2,71.62 119.39,71.55 119.59,71.48 
		119.78,71.41 119.98,71.35 120.17,71.29 120.37,71.23 120.57,71.17 120.76,71.11 120.96,71.06 121.16,71 121.36,70.95 
		121.56,70.91 121.76,70.86 121.96,70.82 122.16,70.77 122.37,70.73 122.57,70.69 122.77,70.66 122.97,70.62 123.18,70.59 
		123.38,70.56 123.58,70.53 123.79,70.51 123.99,70.48 124.2,70.46 124.4,70.44 124.61,70.42 124.81,70.41 125.02,70.39 
		125.22,70.38 125.43,70.37 125.63,70.36 125.84,70.36 126.04,70.35 126.25,70.35 126.46,70.35 126.66,70.36 126.87,70.36 
		127.07,70.37 127.28,70.38 127.48,70.39 127.69,70.4 127.89,70.42 128.1,70.43 128.3,70.45 128.51,70.47 128.71,70.5 128.92,70.52 
		129.12,70.55 129.32,70.58 129.53,70.61 129.73,70.64 129.93,70.68 130.13,70.71 130.34,70.75 130.54,70.8 130.74,70.84 
		130.94,70.88 131.14,70.93 131.34,70.98 131.54,71.03 131.74,71.09 131.93,71.14 132.13,71.2 132.33,71.26 132.53,71.32 
		132.72,71.38 132.92,71.45 133.11,71.51 133.3,71.58 133.5,71.65 133.69,71.73 133.88,71.8 134.07,71.88 134.26,71.96 
		134.45,72.04 134.64,72.12 134.83,72.21 135.01,72.29 135.2,72.38 135.38,72.47 135.57,72.56 135.75,72.66 135.93,72.75 
		136.12,72.85 136.3,72.95 136.48,73.05 136.65,73.15 136.83,73.26 137.01,73.36 137.18,73.47 137.36,73.58 137.53,73.69 
		137.7,73.8 137.87,73.92 138.04,74.04 138.21,74.15 138.38,74.27 138.54,74.4 138.71,74.52 138.87,74.64 139.03,74.77 139.19,74.9 
		139.35,75.03 139.51,75.16 139.67,75.29 139.82,75.43 139.98,75.56 140.13,75.7 140.28,75.84 140.43,75.98 140.58,76.12 
		140.73,76.27 140.87,76.41 141.02,76.56 141.16,76.71 141.3,76.85 141.44,77.01 141.58,77.16 141.72,77.31 141.85,77.47 
		141.99,77.62 142.12,77.78 142.25,77.94 142.38,78.1 142.51,78.26 142.63,78.42 142.76,78.59 142.88,78.75 143,78.92 143.12,79.09 
		143.24,79.25 143.35,79.42 143.47,79.6 143.58,79.77 143.69,79.94 143.8,80.12 143.9,80.29 144.01,80.47 144.11,80.65 
		144.22,80.82 144.32,81 144.41,81.18 144.51,81.37 144.6,81.55 144.7,81.73 144.79,81.92 144.88,82.1 144.96,82.29 145.05,82.48 
		145.13,82.66 145.22,82.85 145.29,83.04 145.37,83.23 145.45,83.42 145.52,83.62 145.6,83.81 145.66,84 145.73,84.2 145.8,84.39 
		145.86,84.59 145.93,84.78 145.99,84.98 146.04,85.18 146.1,85.37 146.16,85.57 146.21,85.77 146.26,85.97 146.31,86.17 
		146.35,86.37 146.4,86.57 146.44,86.77 146.48,86.97 146.52,87.18 146.56,87.38 146.59,87.58 146.62,87.78 146.65,87.99 
		146.68,88.19 146.71,88.39 146.73,88.6 146.76,88.8 146.77,89.01 146.79,89.21 146.81,89.42 146.82,89.62 146.84,89.83 
		146.85,90.03 146.85,90.24 146.86,90.45 146.86,90.65 146.86,90.86 146.86,91.06 146.86,91.27 146.86,91.47 146.85,91.68 
		146.84,91.88 146.83,92.09 146.82,92.3 146.8,92.5 146.79,92.71 146.77,92.91 146.75,93.11 146.72,93.32 146.7,93.52 146.67,93.73 
		146.64,93.93 146.61,94.13 146.58,94.34 146.54,94.54 146.51,94.74 146.47,94.94 146.43,95.15 146.38,95.35 146.34,95.55 
		146.29,95.75 146.24,95.95 146.19,96.15 146.14,96.34 146.08,96.54 146.02,96.74 145.96,96.94 145.9,97.13 145.84,97.33 
		145.77,97.52 145.71,97.72 145.64,97.91 145.57,98.11 145.49,98.3 145.42,98.49 145.34,98.68 145.26,98.87 145.18,99.06 
		145.1,99.25 145.02,99.44 144.93,99.62 144.84,99.81 144.76,99.99 144.66,100.18 144.57,100.36 144.47,100.54 144.38,100.72 
		144.28,100.9 144.18,101.08 144.07,101.26 143.97,101.44 143.86,101.62 143.76,101.79 143.65,101.96 143.54,102.14 143.42,102.31 
		143.31,102.48 143.19,102.65 143.07,102.82 142.95,102.99 142.83,103.15 142.71,103.32 142.58,103.48 142.46,103.64 154.94,103.64 
		162.2,93.25 166.28,103.64 181.84,103.64 181.73,103.57 181.61,103.49 181.49,103.41 181.37,103.33 181.25,103.25 181.14,103.16 
		181.02,103.08 180.91,102.99 180.79,102.9 180.68,102.82 180.57,102.73 180.46,102.64 180.35,102.54 180.24,102.45 180.13,102.36 
		180.02,102.26 179.91,102.17 179.81,102.07 179.7,101.97 179.6,101.87 179.49,101.77 179.39,101.67 179.29,101.57 179.19,101.46 
		179.09,101.36 179,101.25 178.9,101.15 178.8,101.04 178.71,100.93 178.62,100.82 178.52,100.71 178.43,100.6 178.34,100.49 
		178.25,100.38 178.17,100.27 178.08,100.15 177.99,100.04 177.91,99.92 177.83,99.8 177.74,99.68 177.66,99.57 177.58,99.45 
		177.51,99.33 177.43,99.21 177.35,99.08 177.28,98.96 177.2,98.84 177.13,98.71 177.06,98.59 176.99,98.46 176.92,98.34 
		176.85,98.21 176.79,98.08 176.72,97.95 176.66,97.83 176.6,97.7 176.54,97.57 176.48,97.44 176.42,97.3 176.36,97.17 
		176.31,97.04 176.25,96.91 176.2,96.77 176.15,96.64 176.1,96.5 176.05,96.37 176,96.23 175.95,96.1 175.91,95.96 175.87,95.82 
		175.82,95.69 175.78,95.55 175.74,95.41 175.7,95.27 175.67,95.13 175.63,95 175.6,94.86 175.57,94.72 175.54,94.58 175.51,94.44 
		175.48,94.29 175.45,94.15 175.43,94.01 175.4,93.87 175.38,93.73 175.36,93.59 175.34,93.44 175.32,93.3 175.3,93.16 
		175.29,93.02 175.27,92.87 175.26,92.73 175.25,92.59 175.24,92.44 175.23,92.3 175.22,92.16 175.22,92.01 175.21,91.87 
		175.21,91.73 175.21,91.58 175.21,91.44 175.21,91.3 175.22,91.15 175.22,91.01 175.23,90.86 175.23,90.72 175.24,90.58 
		175.25,90.43 175.26,90.29 175.28,90.15 175.29,90.01 175.31,89.86 175.33,89.72 175.35,89.58 175.37,89.44 175.39,89.29 
		175.41,89.15 175.43,89.01 175.8,89.51 176.16,90 176.52,90.48 176.88,90.95 177.25,91.42 177.61,91.87 177.91,92.25 178.22,92.62 
		178.52,92.98 178.83,93.34 179.14,93.7 179.45,94.05 179.76,94.39 180.07,94.73 180.39,95.06 180.63,95.32 180.88,95.57 
		181.12,95.82 181.37,96.06 181.61,96.3 181.87,96.55 182.13,96.79 182.39,97.04 182.65,97.27 182.91,97.51 183.17,97.73 
		183.39,97.93 183.62,98.11 183.84,98.3 184.06,98.48 184.29,98.66 184.51,98.83 184.73,99.01 184.95,99.17 185.17,99.33 
		185.39,99.49 185.61,99.65 185.8,99.78 185.98,99.91 186.17,100.03 186.35,100.16 186.54,100.28 186.73,100.39 186.92,100.52 
		187.12,100.63 187.31,100.75 187.5,100.86 187.7,100.97 187.87,101.07 188.05,101.17 188.23,101.26 188.4,101.36 188.58,101.45 
		188.75,101.54 188.93,101.62 189.11,101.71 189.28,101.79 189.46,101.87 189.64,101.95 189.81,102.03 189.99,102.1 190.17,102.17 
		190.34,102.24 190.51,102.31 190.69,102.38 190.86,102.44 191.01,102.49 191.15,102.54 191.3,102.59 191.45,102.64 191.6,102.69 
		191.74,102.73 191.88,102.77 192.01,102.81 192.15,102.85 192.29,102.89 192.43,102.92 192.57,102.96 192.71,102.99 192.84,103.02 
		192.98,103.06 193.12,103.08 193.26,103.11 193.4,103.14 193.54,103.17 193.68,103.19 193.82,103.22 193.97,103.24 194.12,103.27 
		194.27,103.29 194.42,103.31 194.56,103.32 194.7,103.34 194.84,103.36 194.98,103.37 195.12,103.38 195.26,103.39 195.41,103.4 
		195.55,103.41 195.7,103.42 195.85,103.43 196,103.43 196.15,103.43 196.29,103.44 196.44,103.44 196.59,103.44 196.74,103.43 
		196.89,103.43 197.04,103.43 197.18,103.42 197.32,103.41 197.46,103.4 197.6,103.39 197.74,103.38 197.88,103.37 198.02,103.36 
		198.17,103.34 198.31,103.32 198.45,103.31 198.6,103.29 198.74,103.27 198.89,103.24 199.03,103.22 199.19,103.19 199.34,103.17 
		199.5,103.14 199.66,103.11 199.82,103.07 199.97,103.04 200.13,103 200.29,102.96 200.44,102.92 200.6,102.88 200.76,102.84 
		200.92,102.8 201.07,102.75 201.23,102.7 201.38,102.66 201.54,102.61 201.69,102.56 201.85,102.5 202.01,102.45 202.16,102.39 
		202.32,102.33 202.48,102.28 202.63,102.21 202.82,102.14 203,102.07 203.19,101.99 203.37,101.91 203.55,101.83 203.74,101.74 
		203.91,101.66 204.09,101.58 204.27,101.49 204.44,101.4 204.62,101.31 204.79,101.22 204.97,101.13 205.15,101.03 205.35,100.92 
		205.55,100.81 205.75,100.69 205.95,100.57 206.15,100.45 206.35,100.32 206.56,100.19 206.75,100.07 206.95,99.94 207.15,99.81 
		207.35,99.67 207.55,99.53 207.75,99.39 207.95,99.25 208.15,99.1 208.35,98.95 208.58,98.78 208.8,98.61 209.02,98.44 
		209.24,98.26 209.46,98.08 209.7,97.89 209.94,97.69 210.17,97.49 210.41,97.29 210.65,97.08 210.88,96.87 211.16,96.61 
		211.45,96.34 211.73,96.08 212.02,95.8 212.3,95.53 212.6,95.22 212.9,94.92 213.2,94.61 213.51,94.29 213.81,93.97 214.11,93.64 
		214.46,93.24 214.82,92.84 215.18,92.43 215.53,92.02 215.89,91.58 216.26,91.14 216.62,90.69 216.98,90.23 217.35,89.77 
		217.71,89.3 218.07,88.81 218.44,88.32 218.8,87.83 219.16,87.32 219.63,86.67 220.09,86 220.55,85.32 221.02,84.62 221.48,83.91 
		192.37,69.3 226.57,73.78 248.81,34.3 247.65,34.79 246.51,35.27 245.38,35.72 244.26,36.17 243.15,36.6 242.05,37.01 
		241.14,37.35 240.24,37.67 239.34,37.99 238.45,38.29 237.55,38.59 236.66,38.88 235.78,39.16 234.91,39.43 234.04,39.69 
		233.2,39.93 232.36,40.17 231.54,40.39 230.72,40.61 229.89,40.82 229.07,41.02 228.26,41.22 227.46,41.4 226.66,41.57 
		225.88,41.74 225.1,41.89 224.32,42.04 223.56,42.18 222.8,42.31 222.12,42.42 221.45,42.52 220.78,42.62 220.12,42.71 
		219.46,42.79 218.81,42.86 218.17,42.93 217.62,42.99 217.07,43.04 216.53,43.08 215.99,43.12 215.45,43.16 214.89,43.19 
		214.34,43.22 213.79,43.24 213.24,43.26 212.7,43.27 212.16,43.28 211.63,43.28 211.11,43.28 210.59,43.27 210.07,43.26 
		209.56,43.24 209.06,43.22 208.63,43.2 208.22,43.17 207.8,43.15 207.39,43.12 206.98,43.08 206.57,43.04 206.16,43 205.75,42.96 
		205.35,42.91 204.95,42.86 204.56,42.81 204.17,42.75 203.78,42.7 203.4,42.63 203.01,42.57 202.64,42.5 202.27,42.43 
		201.91,42.36 201.55,42.29 201.19,42.21 200.83,42.13 200.48,42.05 200.12,41.97 199.77,41.88 199.43,41.79 199.09,41.7 
		198.76,41.6 198.42,41.51 198.1,41.41 197.77,41.31 197.44,41.21 197.12,41.1 196.8,40.99 196.48,40.88 196.16,40.77 195.85,40.65 
		195.55,40.54 195.24,40.42 194.94,40.3 194.67,40.19 194.4,40.07 194.14,39.96 193.87,39.84 193.61,39.73 193.35,39.61 
		193.1,39.49 192.83,39.36 192.56,39.22 192.29,39.09 192.02,38.95 191.76,38.82 191.53,38.69 191.29,38.56 191.07,38.43 
		190.84,38.3 190.61,38.17 190.39,38.04 190.17,37.91 189.95,37.77 189.74,37.64 189.52,37.5 189.31,37.37 189.1,37.23 188.9,37.09 
		188.69,36.95 188.49,36.81 188.3,36.67 188.11,36.53 187.92,36.39 187.73,36.25 187.54,36.11 187.35,35.96 187.16,35.82 
		186.98,35.67 186.77,35.5 186.56,35.33 186.36,35.16 186.16,34.98 185.96,34.81 185.76,34.64 185.6,34.49 185.44,34.34 
		185.29,34.19 185.13,34.04 184.98,33.89 184.82,33.74 184.67,33.59 184.52,33.44 184.37,33.29 184.23,33.14 184.09,32.99 
		183.95,32.84 183.82,32.69 183.68,32.53 183.55,32.38 183.41,32.23 183.28,32.08 183.16,31.92 183.03,31.77 182.91,31.62 
		182.79,31.46 182.67,31.31 182.55,31.16 182.43,31 182.31,30.84 182.19,30.68 182.07,30.52 181.96,30.36 181.85,30.2 181.74,30.03 
		181.63,29.86 181.52,29.7 181.41,29.53 181.31,29.37 181.22,29.22 181.13,29.07 181.04,28.93 180.96,28.78 180.87,28.63 
		180.79,28.49 180.71,28.34 180.63,28.2 180.56,28.06 180.49,27.91 180.41,27.77 180.34,27.63 180.27,27.49 180.21,27.35 
		180.15,27.21 180.08,27.08 180.02,26.94 179.97,26.81 179.91,26.67 179.85,26.54 179.8,26.41 179.75,26.28 179.7,26.14 
		179.66,26.04 179.63,25.94 179.59,25.85 179.56,25.75 179.53,25.65 179.49,25.55 179.46,25.45 179.43,25.35 179.4,25.26 
		179.38,25.16 179.35,25.07 179.32,24.97 179.3,24.88 179.28,24.79 179.26,24.7 179.24,24.62 179.22,24.54 179.2,24.46 
		179.18,24.38 179.17,24.3 179.15,24.22 179.14,24.15 179.13,24.08 179.12,24.01 179.11,23.94 179.1,23.87 179.09,23.8 
		179.08,23.74 179.07,23.69 179.07,23.63 179.06,23.58 179.05,23.52 179.05,23.46 179.05,23.41 179.04,23.36 179.04,23.3 
		179.04,23.25 179.03,23.2 179.03,23.15 179.03,23.1 179.03,23.05 179.03,23.01 179.03,22.97 179.03,22.93 179.03,22.89 
		179.03,22.85 179.03,22.81 179.03,22.78 179.04,22.74 179.04,22.71 179.04,22.68 179.04,22.64 179.04,22.61 179.05,22.58 
		179.05,22.55 179.05,22.52 179.06,22.49 179.06,22.45 179.07,22.42 179.07,22.39 179.08,22.36 179.08,22.33 169.22,46.93 
		171.68,13.74 171.35,13.49 171.02,13.23 170.69,12.98 170.35,12.74 170.01,12.5 169.67,12.26 169.32,12.02 168.98,11.79 
		168.63,11.56 168.28,11.34 167.92,11.12 167.57,10.9 167.21,10.69 166.85,10.48 166.49,10.27 166.13,10.07 165.76,9.87 
		165.39,9.67 165.02,9.48 164.65,9.29 164.28,9.1 163.9,8.92 163.52,8.75 163.15,8.57 162.76,8.4 162.38,8.24 162,8.08 161.61,7.92 
		161.22,7.76 160.84,7.61 160.45,7.47 160.05,7.32 159.66,7.18 159.27,7.05 158.87,6.92 158.47,6.79 158.07,6.67 157.68,6.55 
		157.27,6.43 156.87,6.32 156.47,6.22 156.07,6.11 155.66,6.02 155.26,5.92 154.85,5.83 154.44,5.74 154.03,5.66 153.62,5.58 
		153.21,5.51 152.8,5.44 152.39,5.37 151.98,5.31 151.65,5.26 142.05,42.56 	"/>
	<polyline class="st0" points="82.09,103.64 86.4,103.64 71.28,103.64 	"/>
	<polygon class="st0" points="185,52.62 185,52.58 185,52.55 185,52.52 185,52.48 185,52.45 185,52.41 184.99,52.38 184.99,52.35 
		184.99,52.31 184.99,52.28 184.98,52.24 184.98,52.21 184.97,52.18 184.97,52.14 184.96,52.11 184.96,52.08 184.95,52.04 
		184.95,52.01 184.94,51.98 184.93,51.94 184.93,51.91 184.92,51.88 184.91,51.84 184.9,51.81 184.9,51.78 184.89,51.74 
		184.88,51.71 184.87,51.68 184.86,51.65 184.85,51.61 184.84,51.58 184.83,51.55 184.82,51.52 184.81,51.48 184.8,51.45 
		184.78,51.42 184.77,51.39 184.76,51.36 184.75,51.32 184.73,51.29 184.72,51.26 184.71,51.23 184.69,51.2 184.68,51.17 
		184.66,51.14 184.65,51.11 184.63,51.08 184.62,51.05 184.6,51.02 184.59,50.99 184.57,50.96 184.55,50.93 184.54,50.9 
		184.52,50.87 184.5,50.84 184.48,50.81 184.46,50.78 184.45,50.75 184.43,50.73 184.41,50.7 184.39,50.67 184.37,50.64 
		184.35,50.61 184.33,50.59 184.31,50.56 184.29,50.53 184.27,50.51 184.25,50.48 184.22,50.45 184.2,50.43 184.18,50.4 
		184.16,50.37 184.13,50.35 184.11,50.32 184.09,50.3 184.07,50.27 184.04,50.25 184.02,50.23 183.99,50.2 183.97,50.18 
		183.95,50.15 183.92,50.13 183.9,50.11 183.87,50.08 183.85,50.06 183.82,50.04 183.79,50.02 183.77,50 183.74,49.97 183.71,49.95 
		183.69,49.93 183.66,49.91 183.63,49.89 183.61,49.87 183.58,49.85 183.55,49.83 183.52,49.81 183.49,49.79 183.47,49.77 
		183.44,49.76 183.41,49.74 183.38,49.72 183.35,49.7 183.32,49.68 183.29,49.67 183.26,49.65 183.23,49.63 183.2,49.62 
		183.17,49.6 183.14,49.59 183.11,49.57 183.08,49.56 183.05,49.54 183.02,49.53 182.99,49.51 182.96,49.5 182.93,49.49 
		182.9,49.47 182.87,49.46 182.83,49.45 182.8,49.44 182.77,49.42 182.74,49.41 182.71,49.4 182.67,49.39 182.64,49.38 
		182.61,49.37 182.58,49.36 182.54,49.35 182.51,49.34 182.48,49.33 182.45,49.32 182.41,49.31 182.38,49.31 182.35,49.3 
		182.31,49.29 182.28,49.28 182.25,49.28 182.21,49.27 182.18,49.27 182.15,49.26 182.11,49.25 182.08,49.25 182.04,49.25 
		182.01,49.24 181.98,49.24 181.94,49.23 181.91,49.23 181.88,49.23 181.84,49.22 181.81,49.22 181.77,49.22 181.74,49.22 
		181.71,49.22 181.67,49.22 181.64,49.22 181.6,49.22 181.57,49.22 181.54,49.22 181.5,49.22 181.47,49.22 181.43,49.22 
		181.4,49.22 181.37,49.22 181.33,49.23 181.3,49.23 181.26,49.23 181.23,49.24 181.2,49.24 181.16,49.24 181.13,49.25 181.1,49.25 
		181.06,49.26 181.03,49.26 180.99,49.27 180.96,49.28 180.93,49.28 180.89,49.29 180.86,49.3 180.83,49.31 180.79,49.31 
		180.76,49.32 180.73,49.33 180.7,49.34 180.66,49.35 180.63,49.36 180.6,49.37 180.57,49.38 180.53,49.39 180.5,49.4 180.47,49.41 
		180.44,49.42 180.4,49.43 180.37,49.45 180.34,49.46 180.31,49.47 180.28,49.48 180.25,49.5 180.22,49.51 180.18,49.52 
		180.15,49.54 180.12,49.55 180.09,49.57 180.06,49.58 180.03,49.6 180,49.62 179.97,49.63 179.94,49.65 179.91,49.66 179.88,49.68 
		179.85,49.7 179.82,49.72 179.8,49.73 179.77,49.75 179.74,49.77 179.71,49.79 179.68,49.81 179.65,49.83 179.63,49.85 
		179.6,49.87 179.57,49.89 179.54,49.91 179.52,49.93 179.49,49.95 179.46,49.97 179.44,49.99 179.41,50.01 179.38,50.04 
		179.36,50.06 179.33,50.08 179.31,50.1 179.28,50.13 179.26,50.15 179.24,50.17 179.21,50.2 179.19,50.22 179.16,50.25 
		179.14,50.27 179.12,50.3 179.09,50.32 179.07,50.35 179.05,50.37 179.02,50.4 179,50.42 178.98,50.45 178.96,50.47 178.94,50.5 
		178.92,50.53 178.9,50.55 178.88,50.58 178.85,50.61 178.84,50.64 178.82,50.66 178.8,50.69 178.78,50.72 178.76,50.75 
		178.74,50.78 178.72,50.81 178.7,50.84 178.69,50.86 178.67,50.89 178.65,50.92 178.63,50.95 178.62,50.98 178.6,51.01 
		178.59,51.04 178.57,51.07 178.55,51.1 178.54,51.13 178.52,51.16 178.51,51.19 178.5,51.23 178.48,51.26 178.47,51.29 
		178.46,51.32 178.44,51.35 178.43,51.38 178.42,51.41 178.41,51.45 178.4,51.48 178.38,51.51 178.37,51.54 178.36,51.57 
		178.35,51.61 178.34,51.64 178.33,51.67 178.32,51.71 178.32,51.74 178.31,51.77 178.3,51.8 178.29,51.84 178.28,51.87 
		178.27,51.9 178.27,51.94 178.26,51.97 178.26,52 178.25,52.04 178.24,52.07 178.24,52.1 178.23,52.14 178.23,52.17 178.22,52.21 
		178.22,52.24 178.22,52.27 178.21,52.31 178.21,52.34 178.21,52.37 178.21,52.41 178.2,52.44 178.2,52.48 178.2,52.51 178.2,52.54 
		178.2,52.58 178.2,52.61 178.2,52.65 178.2,52.68 178.2,52.71 178.2,52.75 178.2,52.78 178.21,52.82 178.21,52.85 178.21,52.88 
		178.21,52.92 178.21,52.95 178.22,52.99 178.22,53.02 178.23,53.05 178.23,53.09 178.24,53.12 178.24,53.15 178.25,53.19 
		178.25,53.22 178.26,53.25 178.27,53.29 178.27,53.32 178.28,53.35 178.29,53.39 178.29,53.42 178.3,53.45 178.31,53.49 
		178.32,53.52 178.33,53.55 178.34,53.59 178.35,53.62 178.36,53.65 178.37,53.68 178.38,53.71 178.39,53.75 178.4,53.78 
		178.41,53.81 178.43,53.84 178.44,53.87 178.45,53.91 178.46,53.94 178.48,53.97 178.49,54 178.51,54.03 178.52,54.06 
		178.54,54.09 178.55,54.12 178.57,54.15 178.58,54.18 178.6,54.21 178.61,54.24 178.63,54.27 178.65,54.3 178.66,54.33 
		178.68,54.36 178.7,54.39 178.72,54.42 178.73,54.45 178.75,54.48 178.77,54.51 178.79,54.53 178.81,54.56 178.83,54.59 
		178.85,54.62 178.87,54.64 178.89,54.67 178.91,54.7 178.93,54.73 178.95,54.75 178.97,54.78 178.99,54.8 179.02,54.83 
		179.04,54.86 179.06,54.88 179.09,54.91 179.11,54.93 179.13,54.96 179.15,54.98 179.18,55.01 179.2,55.03 179.23,55.05 
		179.25,55.08 179.28,55.1 179.3,55.12 179.33,55.15 179.35,55.17 179.38,55.19 179.4,55.21 179.43,55.24 179.46,55.26 
		179.48,55.28 179.51,55.3 179.54,55.32 179.56,55.34 179.59,55.36 179.62,55.38 179.65,55.4 179.67,55.42 179.7,55.44 
		179.73,55.46 179.76,55.48 179.79,55.5 179.82,55.51 179.85,55.53 179.87,55.55 179.9,55.57 179.93,55.58 179.96,55.6 
		179.99,55.62 180.02,55.63 180.05,55.65 180.08,55.66 180.11,55.68 180.14,55.69 180.18,55.71 180.21,55.72 180.24,55.73 
		180.27,55.75 180.3,55.76 180.33,55.77 180.36,55.79 180.4,55.8 180.43,55.81 180.46,55.82 180.49,55.83 180.52,55.84 
		180.55,55.85 180.59,55.86 180.62,55.87 180.65,55.88 180.68,55.89 180.72,55.9 180.75,55.91 180.78,55.92 180.82,55.93 
		180.85,55.94 180.88,55.94 180.92,55.95 180.95,55.96 180.98,55.96 181.02,55.97 181.05,55.97 181.08,55.98 181.12,55.98 
		181.15,55.99 181.18,55.99 181.22,56 181.25,56 181.29,56 181.32,56.01 181.35,56.01 181.39,56.01 181.42,56.01 181.46,56.02 
		181.49,56.02 181.52,56.02 181.56,56.02 181.59,56.02 181.63,56.02 181.66,56.02 181.69,56.02 181.73,56.02 181.76,56.02 
		181.8,56.01 181.83,56.01 181.86,56.01 181.9,56.01 181.93,56 181.97,56 182,56 182.03,55.99 182.07,55.99 182.1,55.98 
		182.13,55.98 182.17,55.97 182.2,55.97 182.24,55.96 182.27,55.95 182.3,55.95 182.34,55.94 182.37,55.93 182.4,55.92 
		182.43,55.92 182.47,55.91 182.5,55.9 182.53,55.89 182.57,55.88 182.6,55.87 182.63,55.86 182.66,55.85 182.7,55.84 182.73,55.83 
		182.76,55.82 182.79,55.8 182.82,55.79 182.85,55.78 182.89,55.77 182.92,55.75 182.95,55.74 182.98,55.73 183.01,55.71 
		183.04,55.7 183.07,55.68 183.1,55.67 183.13,55.65 183.16,55.64 183.19,55.62 183.22,55.61 183.25,55.59 183.28,55.57 
		183.31,55.56 183.34,55.54 183.37,55.52 183.4,55.5 183.43,55.49 183.46,55.47 183.49,55.45 183.51,55.43 183.54,55.41 
		183.57,55.39 183.6,55.37 183.62,55.35 183.65,55.33 183.68,55.31 183.71,55.29 183.73,55.27 183.76,55.25 183.79,55.22 
		183.81,55.2 183.84,55.18 183.86,55.16 183.89,55.14 183.91,55.11 183.94,55.09 183.96,55.07 183.99,55.04 184.01,55.02 
		184.04,54.99 184.06,54.97 184.08,54.94 184.1,54.92 184.13,54.89 184.15,54.87 184.17,54.84 184.2,54.82 184.22,54.79 
		184.24,54.76 184.26,54.74 184.28,54.71 184.3,54.68 184.32,54.66 184.34,54.63 184.36,54.6 184.38,54.58 184.4,54.55 
		184.42,54.52 184.44,54.49 184.46,54.46 184.48,54.43 184.49,54.4 184.51,54.38 184.53,54.35 184.55,54.32 184.56,54.29 
		184.58,54.26 184.6,54.23 184.61,54.2 184.63,54.17 184.64,54.14 184.66,54.11 184.67,54.08 184.69,54.05 184.7,54.01 
		184.72,53.98 184.73,53.95 184.74,53.92 184.76,53.89 184.77,53.86 184.78,53.83 184.79,53.79 184.8,53.76 184.82,53.73 
		184.83,53.7 184.84,53.67 184.85,53.63 184.86,53.6 184.87,53.57 184.88,53.54 184.88,53.5 184.89,53.47 184.9,53.44 184.91,53.4 
		184.92,53.37 184.93,53.34 184.93,53.3 184.94,53.27 184.95,53.24 184.95,53.2 184.96,53.17 184.96,53.14 184.97,53.1 
		184.97,53.07 184.98,53.04 184.98,53 184.98,52.97 184.99,52.93 184.99,52.9 184.99,52.87 184.99,52.83 185,52.8 185,52.76 
		185,52.73 185,52.7 185,52.66 185,52.63 	"/>
</g>
</svg>
